<svg width="14" height="14" viewBox="0 0 14 14" fill="none" xmlns="http://www.w3.org/2000/svg">
<path d="M0 14C0 9.3365 0 7.00475 0.84323 5.19644C1.73746 3.27876 3.27876 1.73746 5.19644 0.84323C7.00475 0 9.3365 0 14 0C14 4.6635 14 6.99525 13.1568 8.80356C12.2625 10.7212 10.7212 12.2625 8.80356 13.1568C6.99525 14 4.6635 14 0 14Z" fill="#009966"/>
<path d="M9.21121 5.34407C5.12758 5.9087 3.95811 8.97319 2.83553 11.5245L3.65207 11.9613L4.16246 10.8275C4.36975 10.9397 4.58746 11.0323 4.74776 11.0509C9.64602 11.6177 11.6276 3.03065 11.6276 3.03065C11.1063 4.00755 7.97977 3.77538 5.71531 4.03193C3.45085 4.28848 2.39883 6.37083 2.32287 7.39926C2.24691 8.42769 2.95971 9.41775 2.95971 9.41775C4.75825 4.82874 9.21121 5.34407 9.21121 5.34407Z" fill="white"/>
</svg>
